<?xml version="1.0" standalone="no"?>
<!DOCTYPE svg PUBLIC "-//W3C//DTD SVG 20010904//EN"
 "http://www.w3.org/TR/2001/REC-SVG-20010904/DTD/svg10.dtd">
<svg version="1.0" xmlns="http://www.w3.org/2000/svg"
 width="1280.000000pt" height="960.000000pt" viewBox="0 0 1280.000000 960.000000"
 preserveAspectRatio="xMidYMid meet">
<metadata>
Created by potrace 1.15, written by Peter Selinger 2001-2017
</metadata>
<g transform="translate(0.000000,960.000000) scale(0.100000,-0.100000)"
fill="#000000" stroke="none">
<path d="M2795 6993 c-457 -30 -1108 -277 -1560 -591 -134 -93 -263 -201 -404
-337 -318 -308 -487 -571 -569 -879 -24 -91 -26 -119 -27 -286 0 -211 7 -254
67 -380 33 -70 56 -101 127 -171 124 -123 246 -186 450 -231 82 -18 130 -21
326 -22 263 0 357 13 595 83 300 88 670 269 925 454 50 35 91 64 93 62 1 -1
-55 -107 -124 -236 -180 -333 -250 -475 -284 -579 -27 -78 -30 -102 -28 -178
3 -83 4 -87 26 -90 33 -5 55 18 108 112 312 545 703 1167 961 1528 l105 146
47 6 c25 3 114 10 196 16 83 7 195 18 250 25 54 8 101 12 103 10 7 -7 -159
-232 -276 -375 -177 -214 -179 -217 -179 -289 -1 -53 1 -61 18 -61 42 0 210
197 580 680 l25 33 27 -46 c27 -45 80 -87 111 -87 9 0 16 -2 16 -4 0 -2 -31
-64 -69 -137 -121 -233 -170 -420 -156 -604 12 -169 50 -247 146 -300 51 -28
60 -30 164 -29 93 0 120 4 175 26 175 68 362 192 527 349 28 27 53 49 55 49 1
0 3 -48 3 -108 0 -121 13 -157 81 -225 61 -61 135 -91 224 -92 64 0 83 4 125
28 85 47 184 127 335 270 l145 138 6 -108 c6 -120 22 -164 81 -220 152 -146
349 -77 645 227 l73 75 0 -96 c0 -153 41 -234 148 -292 242 -132 500 -38 963
352 l36 30 -3 -93 c-10 -271 75 -369 293 -337 169 24 350 135 576 353 l107
104 0 -100 c0 -54 5 -116 12 -138 28 -94 154 -184 272 -195 57 -5 71 -3 128
24 90 42 208 135 363 285 l135 130 0 -85 c0 -150 48 -240 156 -293 114 -56
248 -13 426 136 54 44 137 125 185 179 48 55 93 100 98 100 6 0 21 -34 33 -77
31 -100 94 -229 138 -280 77 -90 222 -130 378 -102 93 16 146 38 242 98 59 37
107 57 190 80 136 38 205 68 297 129 77 51 268 230 348 325 47 56 47 58 47
127 0 58 -3 71 -16 71 -8 0 -74 -62 -146 -137 -144 -149 -248 -233 -359 -287
-75 -37 -171 -66 -219 -66 -24 0 -28 3 -23 23 14 60 69 326 90 437 37 199 63
307 102 424 32 96 46 123 112 210 l76 99 0 83 c0 73 -3 85 -24 108 -26 28 -76
42 -115 32 -48 -12 -220 -166 -835 -750 -139 -131 -353 -361 -421 -451 -20
-27 -78 -89 -127 -137 -238 -228 -396 -289 -441 -168 -24 65 60 230 309 606
l188 285 -2 64 c-3 72 -15 91 -73 116 -31 14 -49 16 -72 10 -36 -11 -44 -4
-61 51 -23 70 -102 118 -198 118 -61 0 -172 -25 -262 -60 -209 -81 -486 -310
-714 -590 -260 -319 -447 -491 -699 -641 -164 -98 -246 -116 -296 -65 -57 57
-22 169 118 381 74 112 264 366 397 531 74 92 82 111 61 132 -8 8 -8 15 2 27
21 25 -2 59 -61 89 -66 32 -82 32 -147 0 -102 -51 -260 -252 -407 -521 -57
-104 -79 -134 -153 -205 -378 -364 -700 -529 -869 -447 -54 26 -93 81 -93 129
0 47 25 140 51 191 48 95 217 324 284 387 138 128 346 270 433 297 23 7 23 7
-6 -52 -20 -40 -31 -79 -35 -127 -4 -63 -3 -71 19 -92 19 -20 33 -24 84 -24
96 0 138 31 187 135 22 49 28 78 31 156 8 192 -50 259 -228 259 -102 -1 -178
-24 -293 -90 -154 -87 -358 -278 -562 -524 -324 -390 -551 -585 -682 -586 -34
0 -46 5 -67 31 -32 38 -32 52 -1 136 40 105 102 212 285 487 203 306 205 311
191 342 -6 15 -7 25 -1 29 19 12 10 41 -22 72 -44 43 -81 56 -125 44 -28 -8
-35 -7 -40 7 -35 101 -59 127 -132 149 -147 42 -391 -38 -616 -204 -103 -76
-368 -337 -440 -433 -75 -100 -280 -315 -380 -398 -109 -92 -261 -192 -350
-233 -277 -125 -464 -33 -386 192 50 148 130 271 364 567 161 202 168 214 159
241 -7 20 -7 32 1 40 28 28 -55 121 -107 121 -10 0 -48 -19 -84 -41 -104 -66
-161 -89 -220 -89 -60 0 -119 24 -104 43 151 191 174 235 178 338 4 88 -13
122 -66 134 -96 21 -185 -83 -249 -289 -27 -89 -90 -206 -111 -206 -8 0 -22 5
-30 10 -13 8 -13 10 1 10 9 0 27 8 40 19 l23 18 -23 13 c-80 42 -426 65 -1006
64 -667 0 -936 -21 -1175 -91 -104 -31 -172 -64 -198 -97 -15 -20 -19 -41 -19
-92 0 -63 1 -67 31 -85 26 -17 44 -19 116 -15 47 2 110 9 140 15 30 6 152 20
270 31 199 18 274 24 590 50 215 17 300 22 300 15 0 -14 -89 -132 -151 -199
-310 -338 -979 -729 -1454 -851 -185 -47 -283 -59 -460 -52 -266 10 -415 67
-566 217 -83 82 -129 162 -154 266 -19 80 -18 143 4 244 67 301 265 598 631
944 427 405 954 665 1550 765 171 29 450 29 575 0 179 -41 334 -182 335 -304
0 -143 -267 -361 -536 -436 -112 -32 -259 -31 -331 0 -62 27 -85 51 -114 116
-19 42 -23 73 -27 190 -4 152 -14 185 -56 185 -56 0 -82 -91 -73 -265 12 -222
76 -337 222 -402 65 -28 286 -25 385 6 174 54 354 164 485 296 132 132 182
252 173 415 -7 115 -36 180 -121 264 -114 115 -297 184 -542 205 -117 11 -146
11 -250 4z m9071 -1415 c-3 -13 -8 -72 -11 -133 -14 -257 -95 -620 -173 -775
-33 -67 -43 -78 -91 -104 -47 -25 -66 -29 -140 -30 -70 -1 -94 3 -132 22 -109
53 -179 150 -179 247 0 58 29 107 141 240 126 149 549 553 582 555 4 0 5 -10
3 -22z m-5215 -68 c11 0 22 -6 25 -14 5 -13 -334 -490 -460 -646 -88 -110
-302 -320 -371 -365 -224 -146 -369 -98 -305 102 44 138 147 282 334 468 194
193 372 331 520 401 70 34 197 66 224 58 8 -2 22 -4 33 -4z m3832 0 c48 -1 36
-21 -174 -310 -239 -330 -318 -428 -457 -566 -152 -150 -293 -234 -396 -234
-37 0 -48 5 -70 31 -73 86 15 291 227 529 196 219 493 452 656 515 68 25 166
46 189 39 8 -2 19 -4 25 -4z"/>
<path d="M9075 6011 c-50 -23 -65 -53 -65 -137 0 -81 19 -124 70 -159 73 -50
159 -43 225 20 35 32 35 33 35 117 0 77 -2 88 -25 112 -57 62 -163 82 -240 47z"/>
</g>
</svg>
